<svg width="329" height="259" viewBox="0 0 329 259" fill="none" xmlns="http://www.w3.org/2000/svg">
<g opacity="0.1">
<path d="M435.135 23.7263C435.221 24.8549 435.299 25.9841 435.368 27.114L261.344 253.734C260.234 253.959 259.123 254.175 258.01 254.383L435.135 23.7263Z" fill="#E7EAFF"/>
<path d="M433.419 8.42549C433.572 9.4646 433.718 10.5048 433.857 11.546L245.911 256.295C244.869 256.43 243.827 256.557 242.783 256.677L433.419 8.42549Z" fill="#E7EAFF"/>
<path d="M430.842 -5.75453C431.051 -4.78838 431.253 -3.82089 431.448 -2.85217L231.377 257.687C230.391 257.748 229.403 257.803 228.416 257.851L430.842 -5.75453Z" fill="#E7EAFF"/>
<path d="M427.547 -18.9993C427.802 -18.0949 428.052 -17.189 428.295 -16.2817L217.586 258.109C216.647 258.109 215.707 258.102 214.767 258.089L427.547 -18.9993Z" fill="#E7EAFF"/>
<path d="M423.633 -31.4376C423.929 -30.587 424.219 -29.7348 424.504 -28.881L204.433 257.702C203.535 257.647 202.636 257.586 201.738 257.52L423.633 -31.4376Z" fill="#E7EAFF"/>
<path d="M419.171 -43.1631C419.504 -42.3604 419.831 -41.556 420.153 -40.75L191.841 256.565C190.979 256.461 190.117 256.353 189.256 256.24L419.171 -43.1631Z" fill="#E7EAFF"/>
<path d="M414.217 -54.2471C414.583 -53.4879 414.943 -52.7269 415.299 -51.964L179.752 254.772C178.923 254.626 178.095 254.474 177.267 254.317L414.217 -54.2471Z" fill="#E7EAFF"/>
<path d="M408.812 -64.7443C409.208 -64.0251 409.599 -63.304 409.986 -62.581L168.121 252.383C167.323 252.196 166.525 252.004 165.728 251.808L408.812 -64.7443Z" fill="#E7EAFF"/>
<path d="M402.989 -74.6966C403.413 -74.0146 403.833 -73.3307 404.249 -72.6448L156.915 249.44C156.145 249.216 155.376 248.987 154.608 248.754L402.989 -74.6966Z" fill="#E7EAFF"/>
<path d="M396.774 -84.1382C397.224 -83.4914 397.671 -82.8425 398.114 -82.1916L146.107 245.98C145.363 245.72 144.621 245.457 143.88 245.189L396.774 -84.1382Z" fill="#E7EAFF"/>
<path d="M390.187 -93.0955C390.663 -92.4821 391.135 -91.8665 391.604 -91.2488L135.674 242.031C134.956 241.738 134.239 241.441 133.523 241.139L390.187 -93.0955Z" fill="#E7EAFF"/>
<path d="M383.244 -101.59C383.745 -101.009 384.242 -100.425 384.735 -99.8393L125.599 237.615C124.906 237.29 124.213 236.961 123.522 236.628L383.244 -101.59Z" fill="#E7EAFF"/>
<path d="M375.96 -109.64C376.484 -109.089 377.004 -108.536 377.521 -107.981L115.869 232.75C115.199 232.394 114.531 232.034 113.863 231.67L375.96 -109.64Z" fill="#E7EAFF"/>
<path d="M368.344 -117.257C368.89 -116.736 369.434 -116.214 369.974 -115.688L106.473 227.451C105.826 227.065 105.18 226.675 104.536 226.281L368.344 -117.257Z" fill="#E7EAFF"/>
<path d="M360.404 -124.453C360.973 -123.962 361.539 -123.468 362.102 -122.973L97.4013 221.729C96.7768 221.313 96.1539 220.894 95.5324 220.471L360.404 -124.453Z" fill="#E7EAFF"/>
<path d="M352.147 -131.236C352.738 -130.773 353.326 -130.309 353.911 -129.842L88.6487 215.591C88.0462 215.147 87.4454 214.699 86.8461 214.247L352.147 -131.236Z" fill="#E7EAFF"/>
<path d="M343.576 -137.61C344.188 -137.178 344.798 -136.742 345.407 -136.302L80.2097 209.045C79.6277 208.571 79.0489 208.094 78.4731 207.615L343.576 -137.61Z" fill="#E7EAFF"/>
<path d="M334.69 -143.574C335.324 -143.171 335.956 -142.764 336.587 -142.353L72.0856 202.089C71.5258 201.586 70.9692 201.08 70.4158 200.572L334.69 -143.574Z" fill="#E7EAFF"/>
<path d="M325.483 -149.12C326.139 -148.746 326.794 -148.368 327.448 -147.987L64.281 194.717C63.7439 194.184 63.21 193.649 62.6794 193.111L325.483 -149.12Z" fill="#E7EAFF"/>
<path d="M315.947 -154.237C316.627 -153.894 317.306 -153.547 317.983 -153.196L56.8034 186.92C56.2893 186.356 55.7787 185.791 55.2715 185.223L315.947 -154.237Z" fill="#E7EAFF"/>
<path d="M306.074 -158.915C306.777 -158.603 307.48 -158.288 308.181 -157.968L49.6612 178.685C49.1711 178.09 48.6845 177.493 48.2014 176.894L306.074 -158.915Z" fill="#E7EAFF"/>
<path d="M295.85 -163.137C296.579 -162.858 297.306 -162.575 298.032 -162.287L42.8665 169.998C42.4012 169.37 41.9396 168.741 41.4817 168.109L295.85 -163.137Z" fill="#E7EAFF"/>
<path d="M285.261 -166.884C286.016 -166.639 286.769 -166.389 287.522 -166.136L36.4335 160.839C35.994 160.178 35.5585 159.514 35.1269 158.849L285.261 -166.884Z" fill="#E7EAFF"/>
<path d="M274.288 -170.13C275.07 -169.921 275.851 -169.707 276.632 -169.489L30.3805 151.187C29.9684 150.489 29.5603 149.79 29.1565 149.089L274.288 -170.13Z" fill="#E7EAFF"/>
<path d="M262.907 -172.844C263.718 -172.674 264.529 -172.499 265.339 -172.319L24.7297 141.009C24.3468 140.274 23.9682 139.536 23.594 138.797L262.907 -172.844Z" fill="#E7EAFF"/>
<path d="M251.089 -174.989C251.931 -174.86 252.773 -174.726 253.615 -174.587L19.5102 130.271C19.1586 129.494 18.8117 128.715 18.4695 127.935L251.089 -174.989Z" fill="#E7EAFF"/>
<path d="M238.794 -176.513C239.671 -176.43 240.548 -176.341 241.424 -176.247L14.7578 118.925C14.4405 118.102 14.1282 117.279 13.821 116.453L238.794 -176.513Z" fill="#E7EAFF"/>
<path d="M225.973 -177.354C226.889 -177.321 227.804 -177.282 228.719 -177.238L10.5191 106.909C10.2397 106.036 9.96582 105.162 9.69754 104.287L225.973 -177.354Z" fill="#E7EAFF"/>
<path d="M212.563 -177.426C213.522 -177.45 214.481 -177.468 215.44 -177.48L6.85526 94.1448C6.6188 93.2156 6.38855 92.2849 6.1644 91.3529L212.563 -177.426Z" fill="#E7EAFF"/>
<path d="M198.475 -176.615C199.483 -176.706 200.493 -176.79 201.503 -176.867L3.84845 80.5247C3.66177 79.5294 3.48196 78.533 3.30911 77.5353L198.475 -176.615Z" fill="#E7EAFF"/>
<path d="M183.585 -174.761C184.654 -174.931 185.723 -175.094 186.794 -175.248L1.61343 65.9C1.48621 64.8257 1.36691 63.7505 1.25558 62.6743L183.585 -174.761Z" fill="#E7EAFF"/>
<path d="M167.711 -171.624C168.854 -171.894 169.999 -172.155 171.146 -172.407L0.317566 50.0518C0.264404 48.8787 0.220703 47.7051 0.186432 46.5309L167.711 -171.624Z" fill="#E7EAFF"/>
<path d="M150.562 -166.828C151.804 -167.23 153.05 -167.622 154.299 -168.002L0.22229 32.6407C0.26712 31.3364 0.323669 30.0322 0.391937 28.7282L150.562 -166.828Z" fill="#E7EAFF"/>
<path d="M131.625 -159.702C133.011 -160.299 134.403 -160.881 135.8 -161.448L1.77777 13.0799C1.96478 11.5842 2.16754 10.0896 2.38589 8.59642L131.625 -159.702Z" fill="#E7EAFF"/>
<path d="M109.804 -148.822C111.438 -149.755 113.082 -150.666 114.737 -151.554L5.89713 -9.82011C6.32812 -11.6474 6.78333 -13.4709 7.26279 -15.2901L109.804 -148.822Z" fill="#E7EAFF"/>
<path d="M81.579 -129.602C83.8637 -131.438 86.1794 -133.222 88.5245 -134.955L15.1661 -39.4256C16.2346 -42.1382 17.3607 -44.8358 18.5446 -47.5167L81.579 -129.602Z" fill="#E7EAFF"/>
<path d="M274.313 250.689L435.776 40.4266C435.776 41.6705 435.766 42.9146 435.745 44.1589L277.911 249.695C276.714 250.037 275.514 250.368 274.313 250.689Z" fill="#E7EAFF"/>
<path d="M296.01 243.661C294.692 244.166 293.369 244.657 292.043 245.136L434.989 58.9867C434.87 60.3915 434.736 61.7957 434.589 63.1991L296.01 243.661Z" fill="#E7EAFF"/>
<path d="M316.412 234.628C314.903 235.391 313.385 236.137 311.861 236.863L432.115 80.2654C431.806 81.9257 431.478 83.5836 431.13 85.2389L316.412 234.628Z" fill="#E7EAFF"/>
<path d="M341.102 220.012C339.197 221.318 337.274 222.591 335.334 223.831L425.585 106.304C424.888 108.498 424.154 110.684 423.384 112.861L341.102 220.012Z" fill="#E7EAFF"/>
<path d="M408.055 146.667L369.807 196.475C377.226 189.245 384.219 181.396 390.713 172.939C397.208 164.482 402.985 155.7 408.055 146.667Z" fill="#E7EAFF"/>
</g>
</svg>
